HIERARCHY
ROOT Hips
{
	OFFSET 0.00000 0.00000 0.00000
	CHANNELS 6 Xposition Yposition Zposition Zrotation Yrotation Xrotation 
	JOINT LHipJoint
	{
		OFFSET 0 0 0
		CHANNELS 3 Zrotation Yrotation Xrotation
		JOINT LeftUpLeg
		{
			OFFSET 1.48831 -1.59570 0.95625
			CHANNELS 3 Zrotation Yrotation Xrotation
			JOINT LeftLeg
			{
				OFFSET 2.20856 -6.06797 0.00000
				CHANNELS 3 Zrotation Yrotation Xrotation
				JOINT LeftFoot
				{
					OFFSET 2.62924 -7.22379 0.00000
					CHANNELS 3 Zrotation Yrotation Xrotation
					JOINT LeftToeBase
					{
						OFFSET 0.16802 -0.46163 2.41673
						CHANNELS 3 Zrotation Yrotation Xrotation
						End Site
						{
							OFFSET 0.00000 -0.00000 1.23760
						}
					}
				}
			}
		}
	}
	JOINT RHipJoint
	{
		OFFSET 0 0 0
		CHANNELS 3 Zrotation Yrotation Xrotation
		JOINT RightUpLeg
		{
			OFFSET -1.56796 -1.59570 0.95625
			CHANNELS 3 Zrotation Yrotation Xrotation
			JOINT RightLeg
			{
				OFFSET -2.29239 -6.29829 0.00000
				CHANNELS 3 Zrotation Yrotation Xrotation
				JOINT RightFoot
				{
					OFFSET -2.66963 -7.33475 0.00000
					CHANNELS 3 Zrotation Yrotation Xrotation
					JOINT RightToeBase
					{
						OFFSET -0.18185 -0.49964 2.34359
						CHANNELS 3 Zrotation Yrotation Xrotation
						End Site
						{
							OFFSET -0.00000 -0.00000 1.20477
						}
					}
				}
			}
		}
	}
	JOINT LowerBack
	{
		OFFSET 0 0 0
		CHANNELS 3 Zrotation Yrotation Xrotation
		JOINT Spine
		{
			OFFSET 0.03505 2.15832 -0.34324
			CHANNELS 3 Zrotation Yrotation Xrotation
			JOINT Spine1
			{
				OFFSET -0.01089 2.17963 0.04689
				CHANNELS 3 Zrotation Yrotation Xrotation
				JOINT Neck
				{
					OFFSET 0 0 0
					CHANNELS 3 Zrotation Yrotation Xrotation
					JOINT Neck1
					{
						OFFSET 0.04686 1.69404 0.22159
						CHANNELS 3 Zrotation Yrotation Xrotation
						JOINT Head
						{
							OFFSET 0.00265 1.69305 -0.01513
							CHANNELS 3 Zrotation Yrotation Xrotation
							End Site
							{
								OFFSET -0.00415 1.80215 -0.03034
							}
						}
					}
				}
				JOINT LeftShoulder
				{
					OFFSET 0 0 0
					CHANNELS 3 Zrotation Yrotation Xrotation
					JOINT LeftArm
					{
						OFFSET 3.67184 1.11724 -0.19002
						CHANNELS 3 Zrotation Yrotation Xrotation
						JOINT LeftForeArm
						{
							OFFSET 5.17714 -0.00000 -0.00000
							CHANNELS 3 Zrotation Yrotation Xrotation
							JOINT LeftHand
							{
								OFFSET 3.43679 -0.00000 -0.00000
								CHANNELS 3 Zrotation Yrotation Xrotation
								JOINT LeftFingerBase
								{
									OFFSET 0 0 0
									CHANNELS 3 Zrotation Yrotation Xrotation
									JOINT LeftHandIndex1
									{
										OFFSET 0.57312 -0.00000 -0.00000
										CHANNELS 3 Zrotation Yrotation Xrotation
										End Site
										{
											OFFSET 0.46206 -0.00000 -0.00000
										}
									}
								}
								JOINT LThumb
								{
									OFFSET 0 0 0
									CHANNELS 3 Zrotation Yrotation Xrotation
									End Site
									{
										OFFSET 0.46912 -0.00000 0.46912
									}
								}
							}
						}
					}
				}
				JOINT RightShoulder
				{
					OFFSET 0 0 0
					CHANNELS 3 Zrotation Yrotation Xrotation
					JOINT RightArm
					{
						OFFSET -3.59596 0.95831 -0.26050
						CHANNELS 3 Zrotation Yrotation Xrotation
						JOINT RightForeArm
						{
							OFFSET -5.23908 -0.00000 -0.00000
							CHANNELS 3 Zrotation Yrotation Xrotation
							JOINT RightHand
							{
								OFFSET -3.46485 -0.00000 -0.00000
								CHANNELS 3 Zrotation Yrotation Xrotation
								JOINT RightFingerBase
								{
									OFFSET 0 0 0
									CHANNELS 3 Zrotation Yrotation Xrotation
									JOINT RightHandIndex1
									{
										OFFSET -0.60875 -0.00000 -0.00000
										CHANNELS 3 Zrotation Yrotation Xrotation
										End Site
										{
											OFFSET -0.49079 -0.00000 -0.00000
										}
									}
								}
								JOINT RThumb
								{
									OFFSET 0 0 0
									CHANNELS 3 Zrotation Yrotation Xrotation
									End Site
									{
										OFFSET -0.49829 -0.00000 0.49829
									}
								}
							}
						}
					}
				}
			}
		}
	}
}
MOTION
Frames: 11
Frame Time: .0083333
-2.3424 15.1075 9.7077 191.4470 -49.2517 -176.4570 0.0000 0.0000 0.0000 2.3662 -12.9392 -55.0921 8.6884 16.6030 55.0063 -2.1638 -25.1762 6.2119 0.9068 6.0682 16.9823 0.0000 0.0000 0.0000 27.3837 -10.9211 -30.8210 -9.5766 -17.1648 58.0635 -4.9133 -13.1076 -47.4439 -0.1558 2.5437 -7.0108 2.8523 3.5807 30.1499 -3.1397 3.3022 10.7366 -6.1482 1.0155 -3.9939 7.6653 8.9196 7.4773 -17.1501 10.9650 -12.9152 -7.0358 6.1191 -3.5850 -0.0000 -0.0000 0.0000 -71.5891 -6.1156 28.9711 146.2099 -43.9286 -106.0328 -0.0000 0.0000 -8.9287 -1.6839 39.2464 -1.0655 -7.1250 0.0000 -0.0000 -45.4489 63.3855 -22.5580 -0.0000 -0.0000 0.0000 77.8884 10.4455 46.0334 -147.6617 42.8152 -107.0298 0.0000 0.0000 14.5145 12.2895 -18.8096 -4.0178 7.1250 -0.0000 -0.0000 36.8869 -45.2956 -0.3133
-2.2896 15.1036 9.7072 191.3590 -49.2956 -176.5190 0.0000 0.0000 0.0000 2.4585 -13.0353 -54.9930 8.6318 16.5648 54.8078 -2.1356 -25.0049 6.3397 0.9053 6.0634 16.9684 0.0000 0.0000 0.0000 27.3900 -10.9973 -30.9146 -9.6350 -17.1994 58.2614 -4.9251 -12.8254 -47.3435 -0.1627 2.5985 -7.1629 2.8047 3.5866 30.1655 -3.1677 3.2858 10.7753 -6.1465 1.0056 -3.9607 7.6322 8.9168 7.5382 -17.1270 10.9567 -12.9638 -7.0299 6.1184 -3.6146 0.0000 0.0000 0.0000 -71.6713 -6.0573 28.8528 146.2417 -43.9048 -106.0548 -0.0000 0.0000 -8.9062 -1.7090 39.2497 -1.0815 -7.1250 0.0000 -0.0000 -45.4772 63.3811 -22.5704 0.0000 0.0000 0.0000 77.8506 10.5485 46.3002 -147.6431 42.8299 -107.0172 0.0000 0.0000 14.4508 12.3135 -18.8016 -4.0242 7.1250 -0.0000 -0.0000 36.9016 -45.2859 -0.3031
-2.2374 15.1001 9.7073 191.2440 -49.3201 -176.5700 0.0000 0.0000 0.0000 2.5307 -13.1334 -54.8719 8.5747 16.5261 54.6075 -2.1047 -24.8198 6.4536 0.9072 6.0697 16.9868 0.0000 0.0000 0.0000 27.3654 -11.0709 -30.9892 -9.6936 -17.2339 58.4593 -4.9387 -12.5105 -47.2355 -0.1697 2.6540 -7.3169 2.7603 3.5955 30.1883 -3.2066 3.2721 10.8151 -6.1601 0.9969 -3.9278 7.6053 8.9156 7.5745 -17.0913 10.9544 -12.9895 -7.0183 6.1182 -3.6328 -0.0000 0.0000 0.0000 -71.7145 -6.0109 28.7361 146.2639 -43.8883 -106.0702 -0.0000 0.0000 -8.9167 -1.7064 39.2363 -1.0795 -7.1250 0.0000 -0.0000 -45.4559 63.3723 -22.5484 -0.0000 0.0000 0.0000 77.8277 10.6492 46.5492 -147.6189 42.8489 -107.0008 0.0000 0.0000 14.3968 12.3265 -18.7896 -4.0261 7.1250 -0.0000 -0.0000 36.9054 -45.2743 -0.2909
-2.1854 15.0962 9.7079 191.1380 -49.3207 -176.6310 0.0000 0.0000 0.0000 2.6110 -13.2149 -54.7479 8.5191 16.4881 54.4115 -2.0734 -24.6321 6.5642 0.9112 6.0825 17.0240 0.0000 0.0000 0.0000 27.3431 -11.1271 -31.0519 -9.7504 -17.2671 58.6510 -4.9456 -12.2217 -47.1164 -0.1806 2.7374 -7.5485 2.7331 3.6069 30.2134 -3.2499 3.2655 10.8538 -6.1911 0.9919 -3.8948 7.5880 8.9080 7.6156 -17.0435 10.9462 -13.0156 -7.0047 6.1142 -3.6530 0.0000 -0.0000 0.0000 -71.7310 -5.9757 28.6360 146.2793 -43.8768 -106.0809 -0.0000 0.0000 -8.9352 -1.6941 39.2279 -1.0716 -7.1250 0.0000 -0.0000 -45.4327 63.3697 -22.5317 0.0000 -0.0000 0.0000 77.8189 10.7533 46.7828 -147.5854 42.8752 -106.9780 0.0000 0.0000 14.3460 12.3322 -18.7845 -4.0269 7.1250 -0.0000 -0.0000 36.9069 -45.2692 -0.2855
-2.1330 15.0917 9.7092 191.0490 -49.2951 -176.7040 0.0000 0.0000 0.0000 2.7089 -13.2762 -54.6268 8.4659 16.4515 54.2241 -2.0432 -24.4507 6.6684 0.9163 6.0991 17.0723 0.0000 0.0000 0.0000 27.3341 -11.1578 -31.1073 -9.8061 -17.2993 58.8382 -4.9476 -11.9648 -46.9956 -0.1955 2.8472 -7.8537 2.7205 3.6214 30.2417 -3.2946 3.2667 10.8900 -6.2349 0.9909 -3.8637 7.5746 8.8956 7.6601 -16.9841 10.9333 -13.0437 -6.9884 6.1071 -3.6754 -0.0000 0.0000 0.0000 -71.7133 -5.9591 28.5437 146.2831 -43.8739 -106.0835 -0.0000 0.0000 -8.9782 -1.6502 39.2065 -1.0433 -7.1250 0.0000 -0.0000 -45.3614 63.3663 -22.4852 -0.0000 0.0000 0.0000 77.8201 10.8474 47.0056 -147.5556 42.8986 -106.9577 0.0000 0.0000 14.2971 12.3305 -18.7819 -4.0258 7.1250 -0.0000 -0.0000 36.9042 -45.2674 -0.2836
-2.0804 15.0864 9.7111 190.9730 -49.2466 -176.7870 0.0000 0.0000 0.0000 2.8194 -13.3174 -54.5080 8.4156 16.4166 54.0464 -2.0150 -24.2805 6.7695 0.9222 6.1183 17.1279 0.0000 0.0000 0.0000 27.3370 -11.1678 -31.1547 -9.8599 -17.3303 59.0191 -4.9471 -11.7382 -46.8809 -0.2142 2.9796 -8.2219 2.7201 3.6376 30.2687 -3.3386 3.2730 10.9266 -6.2864 0.9926 -3.8299 7.5590 8.8801 7.7109 -16.9167 10.9167 -13.0762 -6.9700 6.0979 -3.7014 -0.0000 0.0000 0.0000 -71.7256 -5.9389 28.5065 146.2870 -43.8710 -106.0862 -0.0000 0.0000 -8.9717 -1.5831 39.1648 -0.9999 -7.1250 0.0000 -0.0000 -45.2401 63.3549 -22.4003 -0.0000 0.0000 0.0000 77.8252 10.9338 47.2199 -147.5267 42.9212 -106.9380 0.0000 0.0000 14.2483 12.3173 -18.7847 -4.0220 7.1250 -0.0000 -0.0000 36.8952 -45.2713 -0.2876
-2.0264 15.0792 9.7140 190.9420 -49.1724 -176.8940 0.0000 0.0000 0.0000 2.9756 -13.3286 -54.4175 8.3684 16.3837 53.8791 -1.9914 -24.1377 6.8467 0.9153 6.0957 17.0624 0.0000 0.0000 0.0000 27.3856 -11.1337 -31.2150 -9.9139 -17.3611 59.2001 -4.9458 -11.5547 -46.7857 -0.2365 3.1298 -8.6404 2.7389 3.6547 30.2964 -3.3748 3.2871 10.9577 -6.3430 0.9983 -3.8009 7.5443 8.8634 7.7683 -16.8500 10.8979 -13.1163 -6.9526 6.0881 -3.7309 0.0000 -0.0000 0.0000 -71.7266 -5.9326 28.4766 146.2889 -43.8696 -106.0875 -0.0000 0.0000 -8.9655 -1.5394 39.1458 -0.9720 -7.1250 0.0000 -0.0000 -45.1726 63.3531 -22.3580 0.0000 -0.0000 0.0000 77.8321 11.0121 47.4328 -147.5034 42.9395 -106.9221 0.0000 0.0000 14.1979 12.2966 -18.7927 -4.0166 7.1250 -0.0000 -0.0000 36.8831 -45.2807 -0.2975
-1.9721 15.0716 9.7176 190.9050 -49.0845 -176.9970 0.0000 0.0000 0.0000 3.1299 -13.3360 -54.3235 8.3224 16.3513 53.7158 -1.9722 -24.0254 6.8679 0.8951 6.0299 16.8713 0.0000 0.0000 0.0000 27.4339 -11.0976 -31.2780 -9.9667 -17.3911 59.3770 -4.9446 -11.3914 -46.7007 -0.2625 3.2960 -9.1040 2.7544 3.6707 30.3243 -3.4085 3.2981 10.9920 -6.3938 1.0022 -3.7690 7.5210 8.8484 7.8298 -16.7824 10.8797 -13.1653 -6.9344 6.0790 -3.7643 0.0000 -0.0000 0.0000 -71.7758 -5.9179 28.4869 146.2995 -43.8616 -106.0949 -0.0000 0.0000 -8.8950 -1.5310 39.1406 -0.9666 -7.1250 0.0000 -0.0000 -45.1575 63.3518 -22.3475 0.0000 -0.0000 0.0000 77.8361 11.0726 47.6450 -147.4941 42.9468 -106.9158 0.0000 0.0000 14.1501 12.2718 -18.8041 -4.0107 7.1250 -0.0000 -0.0000 36.8696 -45.2934 -0.3107
-1.9175 15.0639 9.7220 190.8510 -48.9830 -177.0870 0.0000 0.0000 0.0000 3.2713 -13.3387 -54.2228 8.2767 16.3191 53.5534 -1.9570 -23.9423 6.8129 0.8541 5.8940 16.4772 0.0000 0.0000 0.0000 27.4724 -11.0597 -31.3420 -10.0189 -17.4205 59.5516 -4.9479 -11.2237 -46.6323 -0.2888 3.4562 -9.5516 2.7574 3.6870 30.3525 -3.4399 3.3050 11.0311 -6.4333 1.0035 -3.7335 7.4912 8.8368 7.8899 -16.7197 10.8641 -13.2188 -6.9168 6.0718 -3.7985 0.0000 -0.0000 0.0000 -71.8202 -5.9155 28.4897 146.3072 -43.8559 -106.1002 -0.0000 0.0000 -8.8478 -1.5064 39.1282 -0.9508 -7.1250 0.0000 -0.0000 -45.1171 63.3495 -22.3209 0.0000 -0.0000 0.0000 77.8344 11.1311 47.8569 -147.4876 42.9519 -106.9113 0.0000 0.0000 14.1035 12.2477 -18.8182 -4.0054 7.1250 -0.0000 -0.0000 36.8581 -45.3082 -0.3263
-1.8626 15.0559 9.7270 190.7920 -48.8674 -177.1730 0.0000 0.0000 0.0000 3.4099 -13.3345 -54.1176 8.2313 16.2867 53.3914 -1.9479 -23.9057 6.6344 0.7817 5.6446 15.7566 0.0000 0.0000 0.0000 27.5119 -11.0204 -31.4081 -10.0702 -17.4491 59.7226 -4.9565 -11.0450 -46.5798 -0.3142 3.6035 -9.9639 2.7499 3.7034 30.3769 -3.4630 3.3085 11.0768 -6.4559 1.0026 -3.6906 7.4558 8.8327 7.9396 -16.6692 10.8562 -13.2722 -6.9015 6.0690 -3.8295 0.0000 -0.0000 0.0000 -71.8740 -5.9248 28.4819 146.3158 -43.8494 -106.1062 -0.0000 0.0000 -8.7956 -1.5287 39.1420 -0.9651 -7.1250 0.0000 -0.0000 -45.1573 63.3533 -22.3490 0.0000 -0.0000 0.0000 77.8217 11.1946 48.0676 -147.4820 42.9563 -106.9075 0.0000 0.0000 14.0574 12.2203 -18.8130 -3.9952 7.1250 -0.0000 -0.0000 36.8333 -45.3075 -0.3252
-1.8074 15.0480 9.7326 190.7210 -48.7443 -177.2490 0.0000 0.0000 0.0000 3.5395 -13.3317 -54.0082 8.1856 16.2541 53.2285 -1.9351 -23.8498 6.4390 0.7105 5.3870 15.0159 0.0000 0.0000 0.0000 27.5453 -10.9834 -31.4812 -10.1217 -17.4777 59.8945 -4.9686 -10.8600 -46.5390 -0.3378 3.7347 -10.3315 2.7268 3.7185 30.3985 -3.4778 3.3057 11.1280 -6.4576 0.9977 -3.6430 7.4047 8.8344 7.9811 -16.6194 10.8539 -13.3233 -6.8834 6.0692 -3.8586 0.0000 0.0000 0.0000 -71.9200 -5.9496 28.4547 146.3139 -43.8508 -106.1049 -0.0000 0.0000 -8.7799 -1.5337 39.1420 -0.9683 -7.1250 0.0000 -0.0000 -45.1621 63.3521 -22.3506 0.0000 0.0000 0.0000 77.7966 11.2628 48.2745 -147.4736 42.9629 -106.9018 0.0000 0.0000 14.0128 12.2144 -18.8196 -3.9945 7.1250 -0.0000 -0.0000 36.8322 -45.3138 -0.3318
